<?xml version="1.0" encoding="UTF-8"?>
<svg width="184" height="48" fill="none" version="1.1" viewBox="0 0 184 48" xmlns="http://www.w3.org/2000/svg"><g stroke-width="1.334"><path transform="matrix(.99482 0 0 1 .00034896 0)" d="m48.317-0.023205h-48.25v48.023h48.25z" clip-path="url(#clipPath318)" fill="#db0812"/><path transform="translate(-.17969)" d="m59.18 7.2148v33.594h35.803v-7.7949h-25.408v-5.5215h24.383v-7.7031h-24.383v-4.9648h24.941v-7.6094zm43.775 0v33.594h10.535v-15.869l17.715 15.869h13.705l-20.232-18.236 19.301-15.357h-13.332l-17.156 14.014v-14.014zm46.338 0v33.594h10.488v-13.316h23.59v-7.7031h-23.59v-4.9648h24.195v-7.6094z" clip-path="url(#clipPath312)" fill="#000"/><path transform="translate(-.024016 -.21484)" d="m10.043 7.2148c4.9416 7.6558 4.8945 19.721 4.8945 19.721 2.3309-7.099 2.0992-13.874 1.6797-19.721zm11.096 0c-0.55947 6.0783-1.3513 13.92-6.9922 23.432l0.41797 0.41797c8.1582-10.393 11.236-17.215 14.033-23.85zm12.68 0c-6.4799 12.574-19.766 25.89-28.623 35.17-0.18648 0.18556-0.2793 0.46574-0.2793 0.74414 0.27971 0 0.55962-0.09361 0.74609-0.2793 9.3703-8.7694 22.75-21.947 35.43-28.443v-7.1914zm7.2734 12.389c-6.6664 2.7839-13.519 5.8464-24.008 13.92l0.41992 0.41797c9.5567-5.5679 17.481-6.4037 23.588-6.9141zm-5.7832 11.553c-4.4027-0.03337-9.1405 0.35428-14.076 1.9492h-0.04687s14.312 0.27904 19.906 4.8262v-6.543c-1.8501-0.11597-3.782-0.21726-5.7832-0.23242z" clip-path="url(#clipPath294)" fill="#fff"/></g><defs><clipPath id="clipPath294"><rect x="-.022504" width="184.09" height="48.023" fill="#fff" stroke-width="1.334"/></clipPath><clipPath id="clipPath312"><rect x="-.022504" width="184.09" height="48.023" fill="#fff" stroke-width="1.334"/></clipPath><clipPath id="clipPath318"><rect x="-.022504" width="184.09" height="48.023" fill="#fff" stroke-width="1.334"/></clipPath></defs></svg>
